<svg width="500" height="500" viewBox="0 0 500 500" fill="none" xmlns="http://www.w3.org/2000/svg">
<rect width="500" height="500" fill="#202020"/>
<path d="M81.3556 407.555L185.071 90.0577H229.521L125.805 407.555H81.3556Z" fill="#F4F4F0"/>
<path d="M238.817 379V349.367C238.817 332.199 241.639 317.97 247.283 306.681C252.928 295.157 261.041 285.75 271.625 278.459C282.443 270.933 295.613 264.819 311.135 260.115L334.771 252.707C343.473 249.884 350.764 246.474 356.643 242.476C362.523 238.243 366.991 233.186 370.049 227.307C373.341 221.427 374.988 214.725 374.988 207.199V205.788C374.988 194.028 370.989 184.739 362.993 177.918C354.997 170.863 344.061 167.335 330.185 167.335C316.545 167.335 305.491 171.098 297.024 178.624C288.793 185.915 284.677 196.498 284.677 210.374V216.724H239.522V211.079C239.522 193.205 243.52 178.036 251.516 165.571C259.513 153.107 270.331 143.582 283.972 136.997C297.847 130.411 313.252 127.119 330.185 127.119C347.118 127.119 362.405 130.411 376.046 136.997C389.687 143.347 400.387 152.401 408.148 164.16C416.145 175.684 420.143 189.325 420.143 205.082V208.61C420.143 224.367 416.85 237.773 410.265 248.826C403.915 259.645 395.213 268.582 384.16 275.637C373.106 282.457 360.524 288.102 346.413 292.57L323.835 299.626C313.722 302.683 305.844 306.093 300.199 309.856C294.555 313.384 290.557 317.382 288.205 321.851C286.088 326.084 285.03 331.258 285.03 337.373V338.784H418.026V379H238.817Z" fill="#F4F4F0"/>
</svg>
